# xmcd CD database file
#
# Track frame offsets:
#	150
#	14315
#	25387
#	39195
#	50755
#	61802
#	75022
#	83837
#	97520
#	109520
#	125857
#	135955
#	148197
#	156772
#	168755
#	180290
#	193240
#	205390
#	218072
#	231847
#	242677
#	255897
#	268422
#	281665
#	297835
#	309067
#	320237
#	333690
#	343810
#
# Disc length: 4777 seconds
#
# Revision: 0
# Processed by: cddbd v1.5.1PL0 Copyright (c) Steve Scherf et al.
# Submitted via: CDex 1.50beta9
#
DISCID=9612a71d
DTITLE=Janet McBride - 50 Years of Yodeling [CD2]
DYEAR=2002
DGENRE=Country
TTITLE0=(w-Mark McBride) Yodeler's Dream
TTITLE1=I Want To Be A Cowboy's Sweetheart (2)
TTITLE2=Chime Bells (2)
TTITLE3=If I Could Only Learn To Yodel
TTITLE4=Wide Rollin' Plains
TTITLE5=Ding Dong Polka
TTITLE6=He Taught Me To Yodel (3)
TTITLE7=Swiss Moonlight Lullabye
TTITLE8=Rockin' Over River
TTITLE9=My Last Yodeling Song
TTITLE10=I'm A Cowgirl At Heart
TTITLE11=Texas Plains
TTITLE12=The Cowboy Yodel
TTITLE13=Pinto Pal
TTITLE14=Yodeling Mad
TTITLE15=Swing Time Cowgirl
TTITLE16=Pride Of The Prarie
TTITLE17=Yodel Your Troubles Away
TTITLE18=Cowboy Rhythm
TTITLE19=I Want To Be A Cowboy's Dream Girl
TTITLE20=The Texas Cowgirl
TTITLE21=When A Cowgirl Is Happy
TTITLE22=Daddy Was A Yodeling Cowboy
TTITLE23=Daddy's Yodel
TTITLE24=Columbus Stockade Blues
TTITLE25=(w-John Ingram) Yodel Sweet Molly
TTITLE26=There's A Love Knot In My Lariat
TTITLE27=Betcha My Heart I Love Ya
TTITLE28=Santa's Yodeling Song
EXTD=YEAR: 2002
EXTT0=
EXTT1=
EXTT2=
EXTT3=
EXTT4=
EXTT5=
EXTT6=
EXTT7=
EXTT8=
EXTT9=
EXTT10=
EXTT11=
EXTT12=
EXTT13=
EXTT14=
EXTT15=
EXTT16=
EXTT17=
EXTT18=
EXTT19=
EXTT20=
EXTT21=
EXTT22=
EXTT23=
EXTT24=
EXTT25=
EXTT26=
EXTT27=
EXTT28=
PLAYORDER=
